<svg width="213" height="57" viewBox="0 0 213 57" fill="none" xmlns="http://www.w3.org/2000/svg">
<g filter="url(#filter0_d)">
<path d="M29.1267 37H23.2947C22.8387 37 22.5027 36.904 22.2867 36.712C22.0947 36.496 21.9987 36.16 21.9987 35.704V18.028H16.7067C16.2507 18.028 15.9147 17.932 15.6987 17.74C15.5067 17.524 15.4107 17.188 15.4107 16.732V12.376C15.4107 11.92 15.5067 11.596 15.6987 11.404C15.9147 11.188 16.2507 11.08 16.7067 11.08H35.7147C36.1707 11.08 36.4947 11.188 36.6867 11.404C36.9027 11.596 37.0107 11.92 37.0107 12.376V16.732C37.0107 17.188 36.9027 17.524 36.6867 17.74C36.4947 17.932 36.1707 18.028 35.7147 18.028H30.4227V35.704C30.4227 36.16 30.3147 36.496 30.0987 36.712C29.9067 36.904 29.5827 37 29.1267 37ZM42.6717 37C42.2157 37 41.8797 36.904 41.6637 36.712C41.4717 36.496 41.3757 36.16 41.3757 35.704V31.42C41.3757 30.964 41.4717 30.64 41.6637 30.448C41.8797 30.232 42.2157 30.124 42.6717 30.124H46.2357V18.028H42.6717C42.2157 18.028 41.8797 17.932 41.6637 17.74C41.4717 17.524 41.3757 17.188 41.3757 16.732V12.376C41.3757 11.92 41.4717 11.596 41.6637 11.404C41.8797 11.188 42.2157 11.08 42.6717 11.08H58.0077C58.4637 11.08 58.7877 11.188 58.9797 11.404C59.1957 11.596 59.3037 11.92 59.3037 12.376V16.732C59.3037 17.188 59.1957 17.524 58.9797 17.74C58.7877 17.932 58.4637 18.028 58.0077 18.028H54.5157V30.124H58.0077C58.4637 30.124 58.7877 30.232 58.9797 30.448C59.1957 30.64 59.3037 30.964 59.3037 31.42V35.704C59.3037 36.16 59.1957 36.496 58.9797 36.712C58.7877 36.904 58.4637 37 58.0077 37H42.6717ZM71.8845 37H66.4845C66.0285 37 65.6925 36.904 65.4765 36.712C65.2845 36.496 65.1885 36.16 65.1885 35.704V12.376C65.1885 11.92 65.2845 11.596 65.4765 11.404C65.6925 11.188 66.0285 11.08 66.4845 11.08H70.2285C70.6845 11.08 71.0685 11.152 71.3805 11.296C71.7165 11.44 72.0405 11.692 72.3525 12.052L79.3365 20.044V12.376C79.3365 11.92 79.4325 11.596 79.6245 11.404C79.8405 11.188 80.1765 11.08 80.6325 11.08H86.0325C86.4885 11.08 86.8125 11.188 87.0045 11.404C87.2205 11.596 87.3285 11.92 87.3285 12.376V35.704C87.3285 36.16 87.2205 36.496 87.0045 36.712C86.8125 36.904 86.4885 37 86.0325 37H80.6325C80.1765 37 79.8405 36.904 79.6245 36.712C79.4325 36.496 79.3365 36.16 79.3365 35.704V31.276L73.1805 23.824V35.704C73.1805 36.16 73.0725 36.496 72.8565 36.712C72.6645 36.904 72.3405 37 71.8845 37ZM106.874 37H101.042C100.586 37 100.25 36.904 100.034 36.712C99.842 36.496 99.746 36.16 99.746 35.704V31.096L94.238 23.716C93.686 22.972 93.314 22.324 93.122 21.772C92.954 21.22 92.87 20.392 92.87 19.288V12.376C92.87 11.92 92.966 11.596 93.158 11.404C93.374 11.188 93.71 11.08 94.166 11.08H99.71C100.166 11.08 100.49 11.188 100.682 11.404C100.898 11.596 101.006 11.92 101.006 12.376V18.28C101.006 18.52 101.018 18.772 101.042 19.036C101.066 19.3 101.162 19.552 101.33 19.792L102.986 22.384C103.106 22.6 103.226 22.756 103.346 22.852C103.49 22.948 103.658 22.996 103.85 22.996H104.21C104.402 22.996 104.558 22.948 104.678 22.852C104.822 22.756 104.954 22.6 105.074 22.384L106.73 19.792C106.898 19.552 106.994 19.3 107.018 19.036C107.042 18.772 107.054 18.52 107.054 18.28V12.376C107.054 11.92 107.15 11.596 107.342 11.404C107.558 11.188 107.894 11.08 108.35 11.08H113.714C114.17 11.08 114.494 11.188 114.686 11.404C114.902 11.596 115.01 11.92 115.01 12.376V19.288C115.01 20.392 114.914 21.22 114.722 21.772C114.53 22.324 114.17 22.972 113.642 23.716L108.17 31.132V35.704C108.17 36.16 108.062 36.496 107.846 36.712C107.654 36.904 107.33 37 106.874 37ZM142.625 30.196C142.625 31.3 142.457 32.308 142.121 33.22C141.809 34.108 141.233 34.876 140.393 35.524C139.577 36.148 138.449 36.64 137.009 37C135.569 37.36 133.733 37.54 131.501 37.54C129.269 37.54 127.433 37.36 125.993 37C124.553 36.64 123.413 36.148 122.573 35.524C121.757 34.876 121.181 34.108 120.845 33.22C120.533 32.308 120.377 31.3 120.377 30.196V12.376C120.377 11.92 120.473 11.596 120.665 11.404C120.881 11.188 121.217 11.08 121.673 11.08H127.325C127.781 11.08 128.105 11.188 128.297 11.404C128.513 11.596 128.621 11.92 128.621 12.376V28.792C128.621 29.272 128.801 29.68 129.161 30.016C129.521 30.328 130.325 30.484 131.573 30.484C132.845 30.484 133.661 30.328 134.021 30.016C134.381 29.68 134.561 29.272 134.561 28.792V12.376C134.561 11.92 134.657 11.596 134.849 11.404C135.065 11.188 135.401 11.08 135.857 11.08H141.329C141.785 11.08 142.109 11.188 142.301 11.404C142.517 11.596 142.625 11.92 142.625 12.376V30.196ZM156.992 17.56V22.168H159.692C160.316 22.168 160.736 22.012 160.952 21.7C161.168 21.364 161.276 20.956 161.276 20.476V19.252C161.276 18.772 161.168 18.376 160.952 18.064C160.736 17.728 160.316 17.56 159.692 17.56H156.992ZM155.696 37H150.152C149.696 37 149.36 36.904 149.144 36.712C148.952 36.496 148.856 36.16 148.856 35.704V12.376C148.856 11.92 148.952 11.596 149.144 11.404C149.36 11.188 149.696 11.08 150.152 11.08H162.14C164.828 11.08 166.676 11.644 167.684 12.772C168.716 13.876 169.232 15.316 169.232 17.092V18.748C169.232 19.756 169.076 20.62 168.764 21.34C168.476 22.036 167.96 22.54 167.216 22.852C168.512 22.996 169.556 23.524 170.348 24.436C171.164 25.348 171.572 26.56 171.572 28.072V35.704C171.572 36.16 171.464 36.496 171.248 36.712C171.056 36.904 170.732 37 170.276 37H164.696C164.24 37 163.904 36.904 163.688 36.712C163.496 36.496 163.4 36.16 163.4 35.704V30.196C163.4 29.668 163.292 29.284 163.076 29.044C162.884 28.78 162.536 28.648 162.032 28.648H156.992V35.704C156.992 36.16 156.884 36.496 156.668 36.712C156.476 36.904 156.152 37 155.696 37ZM196.67 37H178.346C177.89 37 177.554 36.904 177.338 36.712C177.146 36.496 177.05 36.16 177.05 35.704V12.376C177.05 11.92 177.146 11.596 177.338 11.404C177.554 11.188 177.89 11.08 178.346 11.08H183.926C184.382 11.08 184.706 11.188 184.898 11.404C185.114 11.596 185.222 11.92 185.222 12.376V30.196H190.154V24.364C190.154 23.908 190.25 23.584 190.442 23.392C190.658 23.176 190.994 23.068 191.45 23.068H196.67C197.126 23.068 197.45 23.176 197.642 23.392C197.858 23.584 197.966 23.908 197.966 24.364V35.704C197.966 36.16 197.858 36.496 197.642 36.712C197.45 36.904 197.126 37 196.67 37Z" fill="white"/>
</g>
<defs>
<filter id="filter0_d" x="0.410645" y="0.0800171" width="212.555" height="56.46" filterUnits="userSpaceOnUse" color-interpolation-filters="sRGB">
<feFlood flood-opacity="0" result="BackgroundImageFix"/>
<feColorMatrix in="SourceAlpha" type="matrix" values="0 0 0 0 0 0 0 0 0 0 0 0 0 0 0 0 0 0 127 0"/>
<feOffset dy="4"/>
<feGaussianBlur stdDeviation="7.5"/>
<feColorMatrix type="matrix" values="0 0 0 0 0 0 0 0 0 0 0 0 0 0 0 0 0 0 0.2 0"/>
<feBlend mode="normal" in2="BackgroundImageFix" result="effect1_dropShadow"/>
<feBlend mode="normal" in="SourceGraphic" in2="effect1_dropShadow" result="shape"/>
</filter>
</defs>
</svg>
